<svg version="1.1" xmlns="http://www.w3.org/2000/svg" xmlns:xlink="http://www.w3.org/1999/xlink" width="1140" height="673"><defs><clipPath id="QDDFHdvWzpGw"><path fill="none" stroke="none" d=" M 0 0 L 1140 0 L 1140 673 L 0 673 L 0 0 Z"/></clipPath></defs><g transform="scale(1,1)" clip-path="url(#QDDFHdvWzpGw)"><g><rect fill="rgb(255,255,255)" stroke="none" x="0" y="0" width="1140" height="674" fill-opacity="1"/><path fill="rgb(0,0,0)" stroke="none" paint-order="stroke fill markers" d=" M 420.39071527404724 306.7457908090997 C 423.90014210019865 310.2282220442807 428.3633299180944 312.59190525770185 433.21599063217144 313.5379961359629 L 438 289 Z" fill-opacity="0.09803921568627451"/><path fill="none" stroke="rgb(0,0,0)" paint-order="fill stroke markers" d=" M 420.39071527404724 306.7457908090997 C 423.90014210019865 310.2282220442807 428.3633299180944 312.59190525770185 433.21599063217144 313.5379961359629 L 438 289 Z" stroke-opacity="0.6" stroke-linecap="round" stroke-linejoin="round" stroke-miterlimit="10" stroke-width="2"/><path fill="rgb(0,0,0)" stroke="none" paint-order="stroke fill markers" d=" M 433.2159906321714 313.5379961359629 C 438.06865134624843 314.48408701422386 443.0928789597418 313.9701018791933 447.6534522031532 312.06102470753274 L 438 289 Z" fill-opacity="0.09803921568627451"/><path fill="none" stroke="rgb(0,0,0)" paint-order="fill stroke markers" d=" M 433.2159906321714 313.5379961359629 C 438.06865134624843 314.48408701422386 443.0928789597418 313.9701018791933 447.6534522031532 312.06102470753274 L 438 289 Z" stroke-opacity="0.6" stroke-linecap="round" stroke-linejoin="round" stroke-miterlimit="10" stroke-width="2"/><path fill="none" stroke="rgb(97,97,97)" paint-order="fill stroke markers" d=" M 309 419 L 492 418" stroke-opacity="0.8" stroke-linecap="round" stroke-linejoin="round" stroke-miterlimit="10" stroke-width="2.5"/><path fill="none" stroke="rgb(97,97,97)" paint-order="fill stroke markers" d=" M 309 419 L 438 289" stroke-opacity="0.8" stroke-linecap="round" stroke-linejoin="round" stroke-miterlimit="10" stroke-width="2.5"/><path fill="none" stroke="rgb(97,97,97)" paint-order="fill stroke markers" d=" M 438 289 L 492 418" stroke-opacity="0.8" stroke-linecap="round" stroke-linejoin="round" stroke-miterlimit="10" stroke-width="2.5"/><path fill="none" stroke="rgb(97,97,97)" paint-order="fill stroke markers" d=" M 438 289 L 412.7653162777232 418.43297641378297" stroke-opacity="0.8" stroke-linecap="round" stroke-linejoin="round" stroke-miterlimit="10" stroke-width="2.5"/><path fill="rgb(21,101,192)" stroke="none" paint-order="stroke fill markers" d=" M 320 419 C 320 425.07513224813874 315.07513224813874 430 309 430 C 302.92486775186126 430 298 425.07513224813874 298 419 C 298 412.92486775186126 302.92486775186126 408 309 408 C 315.07513224813874 408 320 412.92486775186126 320 419 Z" fill-opacity="0.2"/><path fill="none" stroke="rgb(21,101,192)" paint-order="fill stroke markers" d=" M 320 419 C 320 425.07513224813874 315.07513224813874 430 309 430 C 302.92486775186126 430 298 425.07513224813874 298 419 C 298 412.92486775186126 302.92486775186126 408 309 408 C 315.07513224813874 408 320 412.92486775186126 320 419 Z" stroke-opacity="1" stroke-linecap="square" stroke-miterlimit="10" stroke-width="2"/><path fill="rgb(21,101,192)" stroke="none" paint-order="stroke fill markers" d=" M 314 419 C 314 421.76142374915395 311.76142374915395 424 309 424 C 306.23857625084605 424 304 421.76142374915395 304 419 C 304 416.23857625084605 306.23857625084605 414 309 414 C 311.76142374915395 414 314 416.23857625084605 314 419 Z" fill-opacity="1"/><path fill="none" stroke="rgb(0,0,0)" paint-order="fill stroke markers" d=" M 314 419 C 314 421.76142374915395 311.76142374915395 424 309 424 C 306.23857625084605 424 304 421.76142374915395 304 419 C 304 416.23857625084605 306.23857625084605 414 309 414 C 311.76142374915395 414 314 416.23857625084605 314 419 Z" stroke-opacity="1" stroke-linecap="round" stroke-linejoin="round" stroke-miterlimit="10"/><text fill="rgb(21,101,192)" stroke="none" font-family="geogebra-sans-serif, sans-serif" font-size="16px" font-style="normal" font-weight="normal" text-decoration="normal" x="313" y="409" text-anchor="start" dominant-baseline="alphabetic" fill-opacity="1">A</text><text fill="none" stroke="rgb(255,255,255)" font-family="geogebra-sans-serif, sans-serif" font-size="16px" font-style="normal" font-weight="normal" text-decoration="normal" x="313" y="409" text-anchor="start" dominant-baseline="alphabetic" stroke-opacity="1" stroke-linejoin="bevel" stroke-miterlimit="10" stroke-width="3">A</text><text fill="rgb(21,101,192)" stroke="none" font-family="geogebra-sans-serif, sans-serif" font-size="16px" font-style="normal" font-weight="normal" text-decoration="normal" x="313" y="409" text-anchor="start" dominant-baseline="alphabetic" fill-opacity="1">A</text><path fill="rgb(21,101,192)" stroke="none" paint-order="stroke fill markers" d=" M 497 418 C 497 420.76142374915395 494.76142374915395 423 492 423 C 489.23857625084605 423 487 420.76142374915395 487 418 C 487 415.23857625084605 489.23857625084605 413 492 413 C 494.76142374915395 413 497 415.23857625084605 497 418 Z" fill-opacity="1"/><path fill="none" stroke="rgb(0,0,0)" paint-order="fill stroke markers" d=" M 497 418 C 497 420.76142374915395 494.76142374915395 423 492 423 C 489.23857625084605 423 487 420.76142374915395 487 418 C 487 415.23857625084605 489.23857625084605 413 492 413 C 494.76142374915395 413 497 415.23857625084605 497 418 Z" stroke-opacity="1" stroke-linecap="round" stroke-linejoin="round" stroke-miterlimit="10"/><text fill="rgb(21,101,192)" stroke="none" font-family="geogebra-sans-serif, sans-serif" font-size="16px" font-style="normal" font-weight="normal" text-decoration="normal" x="496" y="408" text-anchor="start" dominant-baseline="alphabetic" fill-opacity="1">B</text><text fill="none" stroke="rgb(255,255,255)" font-family="geogebra-sans-serif, sans-serif" font-size="16px" font-style="normal" font-weight="normal" text-decoration="normal" x="496" y="408" text-anchor="start" dominant-baseline="alphabetic" stroke-opacity="1" stroke-linejoin="bevel" stroke-miterlimit="10" stroke-width="3">B</text><text fill="rgb(21,101,192)" stroke="none" font-family="geogebra-sans-serif, sans-serif" font-size="16px" font-style="normal" font-weight="normal" text-decoration="normal" x="496" y="408" text-anchor="start" dominant-baseline="alphabetic" fill-opacity="1">B</text><path fill="rgb(21,101,192)" stroke="none" paint-order="stroke fill markers" d=" M 443 289 C 443 291.76142374915395 440.76142374915395 294 438 294 C 435.23857625084605 294 433 291.76142374915395 433 289 C 433 286.23857625084605 435.23857625084605 284 438 284 C 440.76142374915395 284 443 286.23857625084605 443 289 Z" fill-opacity="1"/><path fill="none" stroke="rgb(0,0,0)" paint-order="fill stroke markers" d=" M 443 289 C 443 291.76142374915395 440.76142374915395 294 438 294 C 435.23857625084605 294 433 291.76142374915395 433 289 C 433 286.23857625084605 435.23857625084605 284 438 284 C 440.76142374915395 284 443 286.23857625084605 443 289 Z" stroke-opacity="1" stroke-linecap="round" stroke-linejoin="round" stroke-miterlimit="10"/><text fill="rgb(21,101,192)" stroke="none" font-family="geogebra-sans-serif, sans-serif" font-size="16px" font-style="normal" font-weight="normal" text-decoration="normal" x="442" y="279" text-anchor="start" dominant-baseline="alphabetic" fill-opacity="1">C</text><text fill="none" stroke="rgb(255,255,255)" font-family="geogebra-sans-serif, sans-serif" font-size="16px" font-style="normal" font-weight="normal" text-decoration="normal" x="442" y="279" text-anchor="start" dominant-baseline="alphabetic" stroke-opacity="1" stroke-linejoin="bevel" stroke-miterlimit="10" stroke-width="3">C</text><text fill="rgb(21,101,192)" stroke="none" font-family="geogebra-sans-serif, sans-serif" font-size="16px" font-style="normal" font-weight="normal" text-decoration="normal" x="442" y="279" text-anchor="start" dominant-baseline="alphabetic" fill-opacity="1">C</text><path fill="rgb(97,97,97)" stroke="none" paint-order="stroke fill markers" d=" M 416.7653162777232 418.43297641378297 C 416.7653162777232 420.6421154131061 414.97445527704633 422.43297641378297 412.7653162777232 422.43297641378297 C 410.5561772784 422.43297641378297 408.7653162777232 420.6421154131061 408.7653162777232 418.43297641378297 C 408.7653162777232 416.2238374144598 410.5561772784 414.43297641378297 412.7653162777232 414.43297641378297 C 414.97445527704633 414.43297641378297 416.7653162777232 416.2238374144598 416.7653162777232 418.43297641378297 Z" fill-opacity="1"/><path fill="none" stroke="rgb(0,0,0)" paint-order="fill stroke markers" d=" M 416.7653162777232 418.43297641378297 C 416.7653162777232 420.6421154131061 414.97445527704633 422.43297641378297 412.7653162777232 422.43297641378297 C 410.5561772784 422.43297641378297 408.7653162777232 420.6421154131061 408.7653162777232 418.43297641378297 C 408.7653162777232 416.2238374144598 410.5561772784 414.43297641378297 412.7653162777232 414.43297641378297 C 414.97445527704633 414.43297641378297 416.7653162777232 416.2238374144598 416.7653162777232 418.43297641378297 Z" stroke-opacity="1" stroke-linecap="round" stroke-linejoin="round" stroke-miterlimit="10"/><text fill="rgb(97,97,97)" stroke="none" font-family="geogebra-sans-serif, sans-serif" font-size="16px" font-style="normal" font-weight="normal" text-decoration="normal" x="417" y="410" text-anchor="start" dominant-baseline="alphabetic" fill-opacity="1">D</text><text fill="none" stroke="rgb(255,255,255)" font-family="geogebra-sans-serif, sans-serif" font-size="16px" font-style="normal" font-weight="normal" text-decoration="normal" x="417" y="410" text-anchor="start" dominant-baseline="alphabetic" stroke-opacity="1" stroke-linejoin="bevel" stroke-miterlimit="10" stroke-width="3">D</text><text fill="rgb(97,97,97)" stroke="none" font-family="geogebra-sans-serif, sans-serif" font-size="16px" font-style="normal" font-weight="normal" text-decoration="normal" x="417" y="410" text-anchor="start" dominant-baseline="alphabetic" fill-opacity="1">D</text><text fill="rgb(0,0,0)" stroke="none" font-family="geogebra-sans-serif, sans-serif" font-size="16px" font-style="normal" font-weight="normal" text-decoration="normal" x="356" y="433" text-anchor="start" dominant-baseline="alphabetic" fill-opacity="1">x</text><text fill="rgb(0,0,0)" stroke="none" font-family="geogebra-sans-serif, sans-serif" font-size="16px" font-style="normal" font-weight="normal" text-decoration="normal" x="453" y="435" text-anchor="start" dominant-baseline="alphabetic" fill-opacity="1">y</text><text fill="rgb(0,0,0)" stroke="none" font-family="geogebra-sans-serif, sans-serif" font-size="16px" font-style="normal" font-weight="normal" text-decoration="normal" x="360" y="346" text-anchor="start" dominant-baseline="alphabetic" fill-opacity="1">a</text><text fill="rgb(0,0,0)" stroke="none" font-family="geogebra-sans-serif, sans-serif" font-size="16px" font-style="normal" font-weight="normal" text-decoration="normal" x="466" y="335" text-anchor="start" dominant-baseline="alphabetic" fill-opacity="1">b</text></g></g></svg>