<svg version="1.1" xmlns="http://www.w3.org/2000/svg" xmlns:xlink="http://www.w3.org/1999/xlink" width="1140" height="673"><defs><clipPath id="hyesHhkWXrLc"><path fill="none" stroke="none" d=" M 0 0 L 1140 0 L 1140 673 L 0 673 L 0 0 Z"/></clipPath></defs><g transform="scale(1,1)" clip-path="url(#hyesHhkWXrLc)"><g><rect fill="rgb(255,255,255)" stroke="none" x="0" y="0" width="1140" height="674" fill-opacity="1"/><path fill="rgb(0,0,0)" stroke="none" paint-order="stroke fill markers" d=" M 420.39071527404724 306.7457908090996 C 423.90014210019865 310.22822204428064 428.3633299180944 312.5919052577018 433.21599063217144 313.5379961359628 L 438 288.99999999999994 Z" fill-opacity="0.09803921568627451"/><path fill="none" stroke="rgb(0,0,0)" paint-order="fill stroke markers" d=" M 420.39071527404724 306.7457908090996 C 423.90014210019865 310.22822204428064 428.3633299180944 312.5919052577018 433.21599063217144 313.5379961359628 L 438 288.99999999999994 Z" stroke-opacity="0.6" stroke-linecap="round" stroke-linejoin="round" stroke-miterlimit="10" stroke-width="2"/><path fill="rgb(0,0,0)" stroke="none" paint-order="stroke fill markers" d=" M 433.2159906321714 313.5379961359628 C 438.06865134624843 314.4840870142238 443.0928789597418 313.9701018791933 447.6534522031532 312.0610247075327 L 438 288.99999999999994 Z" fill-opacity="0.09803921568627451"/><path fill="none" stroke="rgb(0,0,0)" paint-order="fill stroke markers" d=" M 433.2159906321714 313.5379961359628 C 438.06865134624843 314.4840870142238 443.0928789597418 313.9701018791933 447.6534522031532 312.0610247075327 L 438 288.99999999999994 Z" stroke-opacity="0.6" stroke-linecap="round" stroke-linejoin="round" stroke-miterlimit="10" stroke-width="2"/><path fill="rgb(0,0,0)" stroke="none" paint-order="stroke fill markers" d=" M 496.78400936782856 393.46200386403706 C 491.9313486537515 392.515912985776 486.9071210402581 393.0298981208066 482.3465477968467 394.93897529246715 L 492 417.9999999999999 Z" fill-opacity="0.09803921568627451"/><path fill="none" stroke="rgb(0,0,0)" paint-order="fill stroke markers" d=" M 496.78400936782856 393.46200386403706 C 491.9313486537515 392.515912985776 486.9071210402581 393.0298981208066 482.3465477968467 394.93897529246715 L 492 417.9999999999999 Z" stroke-opacity="0.6" stroke-linecap="round" stroke-linejoin="round" stroke-miterlimit="10" stroke-width="2"/><path fill="rgb(0,0,0)" stroke="none" paint-order="stroke fill markers" d=" M 518.8944790250961 207.47843199021318 C 522.4039058512475 210.96086322539418 526.8670936691433 213.3245464388154 531.7197543832202 214.27063731707636 L 536.5037637510488 189.7326411811135 Z" fill-opacity="0.09803921568627451"/><path fill="none" stroke="rgb(0,0,0)" paint-order="fill stroke markers" d=" M 518.8944790250961 207.47843199021318 C 522.4039058512475 210.96086322539418 526.8670936691433 213.3245464388154 531.7197543832202 214.27063731707636 L 536.5037637510488 189.7326411811135 Z" stroke-opacity="0.6" stroke-linecap="round" stroke-linejoin="round" stroke-miterlimit="10" stroke-width="2"/><path fill="none" stroke="rgb(97,97,97)" paint-order="fill stroke markers" d=" M 309 418.9999999999999 L 492 417.9999999999999" stroke-opacity="0.8" stroke-linecap="round" stroke-linejoin="round" stroke-miterlimit="10" stroke-width="2.5"/><path fill="none" stroke="rgb(97,97,97)" paint-order="fill stroke markers" d=" M 309 418.9999999999999 L 438 288.99999999999994" stroke-opacity="0.8" stroke-linecap="round" stroke-linejoin="round" stroke-miterlimit="10" stroke-width="2.5"/><path fill="none" stroke="rgb(97,97,97)" paint-order="fill stroke markers" d=" M 438 288.99999999999994 L 492 417.9999999999999" stroke-opacity="0.8" stroke-linecap="round" stroke-linejoin="round" stroke-miterlimit="10" stroke-width="2.5"/><path fill="none" stroke="rgb(97,97,97)" paint-order="fill stroke markers" d=" M 438 288.99999999999994 L 412.7653162777232 418.43297641378285" stroke-opacity="0.8" stroke-linecap="round" stroke-linejoin="round" stroke-miterlimit="10" stroke-width="2.5"/><path fill="none" stroke="rgb(97,97,97)" paint-order="fill stroke markers" d=" M 492 417.9999999999999 L 556.8157589686717 85.54896973693505" stroke-opacity="0.8" stroke-linecap="round" stroke-linejoin="round" stroke-miterlimit="10" stroke-width="2.5"/><path fill="none" stroke="rgb(97,97,97)" paint-order="fill stroke markers" d=" M 438 288.99999999999994 L 659.6472377090724 65.6345666497719" stroke-opacity="0.8" stroke-linecap="round" stroke-linejoin="round" stroke-miterlimit="10" stroke-width="2.5"/><path fill="none" stroke="rgb(97,97,97)" paint-order="fill stroke markers" d=" M 479 231 L 491 242.99999999999994" stroke-opacity="0.8" stroke-linecap="round" stroke-linejoin="round" stroke-miterlimit="10" stroke-width="2.5"/><path fill="none" stroke="rgb(97,97,97)" paint-order="fill stroke markers" d=" M 473 347.99999999999994 L 455 357.99999999999994" stroke-opacity="0.8" stroke-linecap="round" stroke-linejoin="round" stroke-miterlimit="10" stroke-width="2.5"/><path fill="rgb(21,101,192)" stroke="none" paint-order="stroke fill markers" d=" M 320 418.9999999999999 C 320 425.07513224813863 315.07513224813874 429.9999999999999 309 429.9999999999999 C 302.92486775186126 429.9999999999999 298 425.07513224813863 298 418.9999999999999 C 298 412.92486775186114 302.92486775186126 407.9999999999999 309 407.9999999999999 C 315.07513224813874 407.9999999999999 320 412.92486775186114 320 418.9999999999999 Z" fill-opacity="0.2"/><path fill="none" stroke="rgb(21,101,192)" paint-order="fill stroke markers" d=" M 320 418.9999999999999 C 320 425.07513224813863 315.07513224813874 429.9999999999999 309 429.9999999999999 C 302.92486775186126 429.9999999999999 298 425.07513224813863 298 418.9999999999999 C 298 412.92486775186114 302.92486775186126 407.9999999999999 309 407.9999999999999 C 315.07513224813874 407.9999999999999 320 412.92486775186114 320 418.9999999999999 Z" stroke-opacity="1" stroke-linecap="square" stroke-miterlimit="10" stroke-width="2"/><path fill="rgb(21,101,192)" stroke="none" paint-order="stroke fill markers" d=" M 314 418.9999999999999 C 314 421.76142374915383 311.76142374915395 423.9999999999999 309 423.9999999999999 C 306.23857625084605 423.9999999999999 304 421.76142374915383 304 418.9999999999999 C 304 416.23857625084594 306.23857625084605 413.9999999999999 309 413.9999999999999 C 311.76142374915395 413.9999999999999 314 416.23857625084594 314 418.9999999999999 Z" fill-opacity="1"/><path fill="none" stroke="rgb(0,0,0)" paint-order="fill stroke markers" d=" M 314 418.9999999999999 C 314 421.76142374915383 311.76142374915395 423.9999999999999 309 423.9999999999999 C 306.23857625084605 423.9999999999999 304 421.76142374915383 304 418.9999999999999 C 304 416.23857625084594 306.23857625084605 413.9999999999999 309 413.9999999999999 C 311.76142374915395 413.9999999999999 314 416.23857625084594 314 418.9999999999999 Z" stroke-opacity="1" stroke-linecap="round" stroke-linejoin="round" stroke-miterlimit="10"/><text fill="rgb(21,101,192)" stroke="none" font-family="geogebra-sans-serif, sans-serif" font-size="16px" font-style="normal" font-weight="normal" text-decoration="normal" x="313" y="409" text-anchor="start" dominant-baseline="alphabetic" fill-opacity="1">A</text><text fill="none" stroke="rgb(255,255,255)" font-family="geogebra-sans-serif, sans-serif" font-size="16px" font-style="normal" font-weight="normal" text-decoration="normal" x="313" y="409" text-anchor="start" dominant-baseline="alphabetic" stroke-opacity="1" stroke-linejoin="bevel" stroke-miterlimit="10" stroke-width="3">A</text><text fill="rgb(21,101,192)" stroke="none" font-family="geogebra-sans-serif, sans-serif" font-size="16px" font-style="normal" font-weight="normal" text-decoration="normal" x="313" y="409" text-anchor="start" dominant-baseline="alphabetic" fill-opacity="1">A</text><path fill="rgb(21,101,192)" stroke="none" paint-order="stroke fill markers" d=" M 497 417.9999999999999 C 497 420.76142374915383 494.76142374915395 422.9999999999999 492 422.9999999999999 C 489.23857625084605 422.9999999999999 487 420.76142374915383 487 417.9999999999999 C 487 415.23857625084594 489.23857625084605 412.9999999999999 492 412.9999999999999 C 494.76142374915395 412.9999999999999 497 415.23857625084594 497 417.9999999999999 Z" fill-opacity="1"/><path fill="none" stroke="rgb(0,0,0)" paint-order="fill stroke markers" d=" M 497 417.9999999999999 C 497 420.76142374915383 494.76142374915395 422.9999999999999 492 422.9999999999999 C 489.23857625084605 422.9999999999999 487 420.76142374915383 487 417.9999999999999 C 487 415.23857625084594 489.23857625084605 412.9999999999999 492 412.9999999999999 C 494.76142374915395 412.9999999999999 497 415.23857625084594 497 417.9999999999999 Z" stroke-opacity="1" stroke-linecap="round" stroke-linejoin="round" stroke-miterlimit="10"/><text fill="rgb(21,101,192)" stroke="none" font-family="geogebra-sans-serif, sans-serif" font-size="16px" font-style="normal" font-weight="normal" text-decoration="normal" x="496" y="408" text-anchor="start" dominant-baseline="alphabetic" fill-opacity="1">B</text><text fill="none" stroke="rgb(255,255,255)" font-family="geogebra-sans-serif, sans-serif" font-size="16px" font-style="normal" font-weight="normal" text-decoration="normal" x="496" y="408" text-anchor="start" dominant-baseline="alphabetic" stroke-opacity="1" stroke-linejoin="bevel" stroke-miterlimit="10" stroke-width="3">B</text><text fill="rgb(21,101,192)" stroke="none" font-family="geogebra-sans-serif, sans-serif" font-size="16px" font-style="normal" font-weight="normal" text-decoration="normal" x="496" y="408" text-anchor="start" dominant-baseline="alphabetic" fill-opacity="1">B</text><path fill="rgb(21,101,192)" stroke="none" paint-order="stroke fill markers" d=" M 443 288.99999999999994 C 443 291.7614237491539 440.76142374915395 293.99999999999994 438 293.99999999999994 C 435.23857625084605 293.99999999999994 433 291.7614237491539 433 288.99999999999994 C 433 286.238576250846 435.23857625084605 283.99999999999994 438 283.99999999999994 C 440.76142374915395 283.99999999999994 443 286.238576250846 443 288.99999999999994 Z" fill-opacity="1"/><path fill="none" stroke="rgb(0,0,0)" paint-order="fill stroke markers" d=" M 443 288.99999999999994 C 443 291.7614237491539 440.76142374915395 293.99999999999994 438 293.99999999999994 C 435.23857625084605 293.99999999999994 433 291.7614237491539 433 288.99999999999994 C 433 286.238576250846 435.23857625084605 283.99999999999994 438 283.99999999999994 C 440.76142374915395 283.99999999999994 443 286.238576250846 443 288.99999999999994 Z" stroke-opacity="1" stroke-linecap="round" stroke-linejoin="round" stroke-miterlimit="10"/><text fill="rgb(21,101,192)" stroke="none" font-family="geogebra-sans-serif, sans-serif" font-size="16px" font-style="normal" font-weight="normal" text-decoration="normal" x="442" y="279" text-anchor="start" dominant-baseline="alphabetic" fill-opacity="1">C</text><text fill="none" stroke="rgb(255,255,255)" font-family="geogebra-sans-serif, sans-serif" font-size="16px" font-style="normal" font-weight="normal" text-decoration="normal" x="442" y="279" text-anchor="start" dominant-baseline="alphabetic" stroke-opacity="1" stroke-linejoin="bevel" stroke-miterlimit="10" stroke-width="3">C</text><text fill="rgb(21,101,192)" stroke="none" font-family="geogebra-sans-serif, sans-serif" font-size="16px" font-style="normal" font-weight="normal" text-decoration="normal" x="442" y="279" text-anchor="start" dominant-baseline="alphabetic" fill-opacity="1">C</text><path fill="rgb(97,97,97)" stroke="none" paint-order="stroke fill markers" d=" M 416.7653162777232 418.43297641378285 C 416.7653162777232 420.642115413106 414.97445527704633 422.43297641378285 412.7653162777232 422.43297641378285 C 410.5561772784 422.43297641378285 408.7653162777232 420.642115413106 408.7653162777232 418.43297641378285 C 408.7653162777232 416.2238374144597 410.5561772784 414.43297641378285 412.7653162777232 414.43297641378285 C 414.97445527704633 414.43297641378285 416.7653162777232 416.2238374144597 416.7653162777232 418.43297641378285 Z" fill-opacity="1"/><path fill="none" stroke="rgb(0,0,0)" paint-order="fill stroke markers" d=" M 416.7653162777232 418.43297641378285 C 416.7653162777232 420.642115413106 414.97445527704633 422.43297641378285 412.7653162777232 422.43297641378285 C 410.5561772784 422.43297641378285 408.7653162777232 420.642115413106 408.7653162777232 418.43297641378285 C 408.7653162777232 416.2238374144597 410.5561772784 414.43297641378285 412.7653162777232 414.43297641378285 C 414.97445527704633 414.43297641378285 416.7653162777232 416.2238374144597 416.7653162777232 418.43297641378285 Z" stroke-opacity="1" stroke-linecap="round" stroke-linejoin="round" stroke-miterlimit="10"/><text fill="rgb(97,97,97)" stroke="none" font-family="geogebra-sans-serif, sans-serif" font-size="16px" font-style="normal" font-weight="normal" text-decoration="normal" x="417" y="410" text-anchor="start" dominant-baseline="alphabetic" fill-opacity="1">D</text><text fill="none" stroke="rgb(255,255,255)" font-family="geogebra-sans-serif, sans-serif" font-size="16px" font-style="normal" font-weight="normal" text-decoration="normal" x="417" y="410" text-anchor="start" dominant-baseline="alphabetic" stroke-opacity="1" stroke-linejoin="bevel" stroke-miterlimit="10" stroke-width="3">D</text><text fill="rgb(97,97,97)" stroke="none" font-family="geogebra-sans-serif, sans-serif" font-size="16px" font-style="normal" font-weight="normal" text-decoration="normal" x="417" y="410" text-anchor="start" dominant-baseline="alphabetic" fill-opacity="1">D</text><path fill="rgb(97,97,97)" stroke="none" paint-order="stroke fill markers" d=" M 540.5037637510488 189.7326411811135 C 540.5037637510488 191.9417801804367 538.712902750372 193.7326411811135 536.5037637510488 193.7326411811135 C 534.2946247517257 193.7326411811135 532.5037637510488 191.9417801804367 532.5037637510488 189.7326411811135 C 532.5037637510488 187.52350218179032 534.2946247517257 185.7326411811135 536.5037637510488 185.7326411811135 C 538.712902750372 185.7326411811135 540.5037637510488 187.52350218179032 540.5037637510488 189.7326411811135 Z" fill-opacity="1"/><path fill="none" stroke="rgb(0,0,0)" paint-order="fill stroke markers" d=" M 540.5037637510488 189.7326411811135 C 540.5037637510488 191.9417801804367 538.712902750372 193.7326411811135 536.5037637510488 193.7326411811135 C 534.2946247517257 193.7326411811135 532.5037637510488 191.9417801804367 532.5037637510488 189.7326411811135 C 532.5037637510488 187.52350218179032 534.2946247517257 185.7326411811135 536.5037637510488 185.7326411811135 C 538.712902750372 185.7326411811135 540.5037637510488 187.52350218179032 540.5037637510488 189.7326411811135 Z" stroke-opacity="1" stroke-linecap="round" stroke-linejoin="round" stroke-miterlimit="10"/><text fill="rgb(97,97,97)" stroke="none" font-family="geogebra-sans-serif, sans-serif" font-size="16px" font-style="normal" font-weight="normal" text-decoration="normal" x="541" y="182" text-anchor="start" dominant-baseline="alphabetic" fill-opacity="1">O</text><text fill="none" stroke="rgb(255,255,255)" font-family="geogebra-sans-serif, sans-serif" font-size="16px" font-style="normal" font-weight="normal" text-decoration="normal" x="541" y="182" text-anchor="start" dominant-baseline="alphabetic" stroke-opacity="1" stroke-linejoin="bevel" stroke-miterlimit="10" stroke-width="3">O</text><text fill="rgb(97,97,97)" stroke="none" font-family="geogebra-sans-serif, sans-serif" font-size="16px" font-style="normal" font-weight="normal" text-decoration="normal" x="541" y="182" text-anchor="start" dominant-baseline="alphabetic" fill-opacity="1">O</text><text fill="rgb(0,0,0)" stroke="none" font-family="geogebra-sans-serif, sans-serif" font-size="16px" font-style="normal" font-weight="normal" text-decoration="normal" x="356" y="433" text-anchor="start" dominant-baseline="alphabetic" fill-opacity="1">x</text><text fill="rgb(0,0,0)" stroke="none" font-family="geogebra-sans-serif, sans-serif" font-size="16px" font-style="normal" font-weight="normal" text-decoration="normal" x="453" y="435" text-anchor="start" dominant-baseline="alphabetic" fill-opacity="1">y</text><text fill="rgb(0,0,0)" stroke="none" font-family="geogebra-sans-serif, sans-serif" font-size="16px" font-style="normal" font-weight="normal" text-decoration="normal" x="360" y="346" text-anchor="start" dominant-baseline="alphabetic" fill-opacity="1">a</text><text fill="rgb(0,0,0)" stroke="none" font-family="geogebra-sans-serif, sans-serif" font-size="16px" font-style="normal" font-weight="normal" text-decoration="normal" x="466" y="335" text-anchor="start" dominant-baseline="alphabetic" fill-opacity="1">b</text><text fill="rgb(0,0,0)" stroke="none" font-family="geogebra-sans-serif, sans-serif" font-size="16px" font-style="normal" font-weight="normal" text-decoration="normal" x="461" y="247" text-anchor="start" dominant-baseline="alphabetic" fill-opacity="1">b</text></g></g></svg>