<svg version="1.1" xmlns="http://www.w3.org/2000/svg" xmlns:xlink="http://www.w3.org/1999/xlink" width="1136" height="673"><defs><clipPath id="IOvbfZZmKqDT"><path fill="none" stroke="none" d=" M 0 0 L 1136 0 L 1136 673 L 0 673 L 0 0 Z"/></clipPath></defs><g transform="scale(1,1)" clip-path="url(#IOvbfZZmKqDT)"><g><rect fill="rgb(255,255,255)" stroke="none" x="0" y="0" width="1136" height="674" fill-opacity="1"/><path fill="rgb(0,0,0)" stroke="none" paint-order="stroke fill markers" d=" M 485.40272154347286 172.81790813339924 C 488.9121483696243 176.30033936858024 493.37533618752 178.66402258200142 498.227996901597 179.61011346026243 L 503.01200626942557 155.07211732429954 Z" fill-opacity="0.09803921568627451"/><path fill="none" stroke="rgb(0,0,0)" paint-order="fill stroke markers" d=" M 485.40272154347286 172.81790813339924 C 488.9121483696243 176.30033936858024 493.37533618752 178.66402258200142 498.227996901597 179.61011346026243 L 503.01200626942557 155.07211732429954 Z" stroke-opacity="0.6" stroke-linecap="round" stroke-linejoin="round" stroke-miterlimit="10" stroke-width="2"/><path fill="rgb(0,0,0)" stroke="none" paint-order="stroke fill markers" d=" M 498.227996901597 179.61011346026243 C 503.080657615674 180.5562043385234 508.10488522916745 180.0422192034929 512.6654584725788 178.1331420318323 L 503.01200626942557 155.07211732429954 Z" fill-opacity="0.09803921568627451"/><path fill="none" stroke="rgb(0,0,0)" paint-order="fill stroke markers" d=" M 498.227996901597 179.61011346026243 C 503.080657615674 180.5562043385234 508.10488522916745 180.0422192034929 512.6654584725788 178.1331420318323 L 503.01200626942557 155.07211732429954 Z" stroke-opacity="0.6" stroke-linecap="round" stroke-linejoin="round" stroke-miterlimit="10" stroke-width="2"/><path fill="rgb(0,0,0)" stroke="none" paint-order="stroke fill markers" fill-rule="evenodd" d=" M 315.75618531191355 343.77953379311066 L 305.79486959866153 353.81806900801587 L 315.8334048135667 363.77938472126925 L 325.7947205268187 353.74084950636274 L 315.75618531191355 343.77953379311066" fill-opacity="0.09803921568627451"/><path fill="none" stroke="rgb(0,0,0)" paint-order="fill stroke markers" d=" M 315.75618531191355 343.77953379311066 L 305.79486959866153 353.81806900801587 L 315.8334048135667 363.77938472126925 L 325.7947205268187 353.74084950636274 L 315.75618531191355 343.77953379311066" stroke-opacity="0.6" stroke-linecap="round" stroke-linejoin="round" stroke-miterlimit="10" stroke-width="2"/><path fill="rgb(0,0,0)" stroke="none" paint-order="stroke fill markers" fill-rule="evenodd" d=" M 605.666097307627 400.30133480444795 L 600.2052800958594 387.25604924300325 L 587.1599945344135 392.7168664547703 L 592.6208117461823 405.7621520162155 L 605.666097307627 400.30133480444795" fill-opacity="0.09803921568627451"/><path fill="none" stroke="rgb(0,0,0)" paint-order="fill stroke markers" d=" M 605.666097307627 400.30133480444795 L 600.2052800958594 387.25604924300325 L 587.1599945344135 392.7168664547703 L 592.6208117461823 405.7621520162155 L 605.666097307627 400.30133480444795" stroke-opacity="0.6" stroke-linecap="round" stroke-linejoin="round" stroke-miterlimit="10" stroke-width="2"/><path fill="rgb(0,0,0)" stroke="none" paint-order="stroke fill markers" fill-rule="evenodd" d=" M 504.7249460664538 468.540100180458 L 504.6476677905933 454.39817569798197 L 490.50574330811634 454.4754539738416 L 490.5830215839778 468.61737845631853 L 504.7249460664538 468.540100180458" fill-opacity="0.09803921568627451"/><path fill="none" stroke="rgb(0,0,0)" paint-order="fill stroke markers" d=" M 504.7249460664538 468.540100180458 L 504.6476677905933 454.39817569798197 L 490.50574330811634 454.4754539738416 L 490.5830215839778 468.61737845631853 L 504.7249460664538 468.540100180458" stroke-opacity="0.6" stroke-linecap="round" stroke-linejoin="round" stroke-miterlimit="10" stroke-width="2"/><path fill="none" stroke="rgb(97,97,97)" paint-order="fill stroke markers" d=" M 190.25009254983956 470.25854200295316 L 633.9355980590198 467.8340310438866" stroke-opacity="0.8" stroke-linecap="round" stroke-linejoin="round" stroke-miterlimit="10" stroke-width="2.5"/><path fill="none" stroke="rgb(97,97,97)" paint-order="fill stroke markers" d=" M 190.25009254983956 470.25854200295316 L 503.01200626942557 155.07211732429954" stroke-opacity="0.8" stroke-linecap="round" stroke-linejoin="round" stroke-miterlimit="10" stroke-width="2.5"/><path fill="none" stroke="rgb(97,97,97)" paint-order="fill stroke markers" d=" M 503.01200626942557 155.07211732429954 L 633.9355980590198 467.8340310438866" stroke-opacity="0.8" stroke-linecap="round" stroke-linejoin="round" stroke-miterlimit="10" stroke-width="2.5"/><path fill="none" stroke="rgb(97,97,97)" paint-order="fill stroke markers" d=" M 503.01200626942557 155.07211732429954 L 441.8302390361869 468.88378710412064" stroke-opacity="0.8" stroke-linecap="round" stroke-linejoin="round" stroke-miterlimit="10" stroke-width="2.5"/><path fill="none" stroke="rgb(255,0,0)" paint-order="fill stroke markers" d=" M 503.01200626942557 155.07211732429954 L 504.7249460664538 468.540100180458" stroke-opacity="0.8" stroke-linecap="round" stroke-linejoin="round" stroke-miterlimit="10" stroke-width="3.5"/><path fill="none" stroke="rgb(255,0,0)" paint-order="fill stroke markers" d=" M 441.8302390361869 468.88378710412064 L 605.666097307627 400.30133480444795" stroke-opacity="0.8" stroke-linecap="round" stroke-linejoin="round" stroke-miterlimit="10" stroke-width="3.5"/><path fill="none" stroke="rgb(255,0,0)" paint-order="fill stroke markers" d=" M 441.8302390361869 468.88378710412064 L 315.75618531191355 343.77953379311066" stroke-opacity="0.8" stroke-linecap="round" stroke-linejoin="round" stroke-miterlimit="10" stroke-width="3.5"/><path fill="none" stroke="rgb(97,97,97)" paint-order="fill stroke markers" d=" M 533.5014943863669 436.6214567037007 L 527.7448402315154 426.3417171414658" stroke-opacity="0.8" stroke-linecap="round" stroke-linejoin="round" stroke-miterlimit="10" stroke-width="2.5"/><path fill="none" stroke="rgb(97,97,97)" paint-order="fill stroke markers" d=" M 533.5014943863669 436.6214567037007 L 527.7448402315154 426.3417171414658" stroke-opacity="0.8" stroke-linecap="round" stroke-linejoin="round" stroke-miterlimit="10" stroke-width="2.5"/><path fill="none" stroke="rgb(97,97,97)" paint-order="fill stroke markers" d=" M 364.89242298945 399.97630444511947 L 371.9382626378288 392.9304647967406" stroke-opacity="0.8" stroke-linecap="round" stroke-linejoin="round" stroke-miterlimit="10" stroke-width="2.5"/><path fill="rgb(21,101,192)" stroke="none" paint-order="stroke fill markers" d=" M 201.25009254983956 470.25854200295316 C 201.25009254983956 476.3336742510919 196.32522479797828 481.25854200295316 190.25009254983956 481.25854200295316 C 184.17496030170085 481.25854200295316 179.25009254983956 476.3336742510919 179.25009254983956 470.25854200295316 C 179.25009254983956 464.1834097548144 184.17496030170085 459.25854200295316 190.25009254983956 459.25854200295316 C 196.32522479797828 459.25854200295316 201.25009254983956 464.1834097548144 201.25009254983956 470.25854200295316 Z" fill-opacity="0.2"/><path fill="none" stroke="rgb(21,101,192)" paint-order="fill stroke markers" d=" M 201.25009254983956 470.25854200295316 C 201.25009254983956 476.3336742510919 196.32522479797828 481.25854200295316 190.25009254983956 481.25854200295316 C 184.17496030170085 481.25854200295316 179.25009254983956 476.3336742510919 179.25009254983956 470.25854200295316 C 179.25009254983956 464.1834097548144 184.17496030170085 459.25854200295316 190.25009254983956 459.25854200295316 C 196.32522479797828 459.25854200295316 201.25009254983956 464.1834097548144 201.25009254983956 470.25854200295316 Z" stroke-opacity="1" stroke-linecap="square" stroke-miterlimit="10" stroke-width="2"/><path fill="rgb(21,101,192)" stroke="none" paint-order="stroke fill markers" d=" M 195.25009254983956 470.25854200295316 C 195.25009254983956 473.0199657521071 193.01151629899354 475.25854200295316 190.25009254983956 475.25854200295316 C 187.4886688006856 475.25854200295316 185.25009254983956 473.0199657521071 185.25009254983956 470.25854200295316 C 185.25009254983956 467.4971182537992 187.4886688006856 465.25854200295316 190.25009254983956 465.25854200295316 C 193.01151629899354 465.25854200295316 195.25009254983956 467.4971182537992 195.25009254983956 470.25854200295316 Z" fill-opacity="1"/><path fill="none" stroke="rgb(0,0,0)" paint-order="fill stroke markers" d=" M 195.25009254983956 470.25854200295316 C 195.25009254983956 473.0199657521071 193.01151629899354 475.25854200295316 190.25009254983956 475.25854200295316 C 187.4886688006856 475.25854200295316 185.25009254983956 473.0199657521071 185.25009254983956 470.25854200295316 C 185.25009254983956 467.4971182537992 187.4886688006856 465.25854200295316 190.25009254983956 465.25854200295316 C 193.01151629899354 465.25854200295316 195.25009254983956 467.4971182537992 195.25009254983956 470.25854200295316 Z" stroke-opacity="1" stroke-linecap="round" stroke-linejoin="round" stroke-miterlimit="10"/><text fill="rgb(21,101,192)" stroke="none" font-family="geogebra-sans-serif, sans-serif" font-size="16px" font-style="normal" font-weight="normal" text-decoration="normal" x="194" y="460" text-anchor="start" dominant-baseline="alphabetic" fill-opacity="1">A</text><text fill="none" stroke="rgb(255,255,255)" font-family="geogebra-sans-serif, sans-serif" font-size="16px" font-style="normal" font-weight="normal" text-decoration="normal" x="194" y="460" text-anchor="start" dominant-baseline="alphabetic" stroke-opacity="1" stroke-linejoin="bevel" stroke-miterlimit="10" stroke-width="3">A</text><text fill="rgb(21,101,192)" stroke="none" font-family="geogebra-sans-serif, sans-serif" font-size="16px" font-style="normal" font-weight="normal" text-decoration="normal" x="194" y="460" text-anchor="start" dominant-baseline="alphabetic" fill-opacity="1">A</text><path fill="rgb(21,101,192)" stroke="none" paint-order="stroke fill markers" d=" M 638.9355980590198 467.8340310438866 C 638.9355980590198 470.5954547930406 636.6970218081738 472.8340310438866 633.9355980590198 472.8340310438866 C 631.1741743098657 472.8340310438866 628.9355980590198 470.5954547930406 628.9355980590198 467.8340310438866 C 628.9355980590198 465.0726072947327 631.1741743098657 462.8340310438866 633.9355980590198 462.8340310438866 C 636.6970218081738 462.8340310438866 638.9355980590198 465.0726072947327 638.9355980590198 467.8340310438866 Z" fill-opacity="1"/><path fill="none" stroke="rgb(0,0,0)" paint-order="fill stroke markers" d=" M 638.9355980590198 467.8340310438866 C 638.9355980590198 470.5954547930406 636.6970218081738 472.8340310438866 633.9355980590198 472.8340310438866 C 631.1741743098657 472.8340310438866 628.9355980590198 470.5954547930406 628.9355980590198 467.8340310438866 C 628.9355980590198 465.0726072947327 631.1741743098657 462.8340310438866 633.9355980590198 462.8340310438866 C 636.6970218081738 462.8340310438866 638.9355980590198 465.0726072947327 638.9355980590198 467.8340310438866 Z" stroke-opacity="1" stroke-linecap="round" stroke-linejoin="round" stroke-miterlimit="10"/><text fill="rgb(21,101,192)" stroke="none" font-family="geogebra-sans-serif, sans-serif" font-size="16px" font-style="normal" font-weight="normal" text-decoration="normal" x="638" y="458" text-anchor="start" dominant-baseline="alphabetic" fill-opacity="1">B</text><text fill="none" stroke="rgb(255,255,255)" font-family="geogebra-sans-serif, sans-serif" font-size="16px" font-style="normal" font-weight="normal" text-decoration="normal" x="638" y="458" text-anchor="start" dominant-baseline="alphabetic" stroke-opacity="1" stroke-linejoin="bevel" stroke-miterlimit="10" stroke-width="3">B</text><text fill="rgb(21,101,192)" stroke="none" font-family="geogebra-sans-serif, sans-serif" font-size="16px" font-style="normal" font-weight="normal" text-decoration="normal" x="638" y="458" text-anchor="start" dominant-baseline="alphabetic" fill-opacity="1">B</text><path fill="rgb(21,101,192)" stroke="none" paint-order="stroke fill markers" d=" M 508.01200626942557 155.07211732429954 C 508.01200626942557 157.83354107345352 505.7734300185795 160.07211732429954 503.01200626942557 160.07211732429954 C 500.2505825202716 160.07211732429954 498.01200626942557 157.83354107345352 498.01200626942557 155.07211732429954 C 498.01200626942557 152.31069357514556 500.2505825202716 150.07211732429954 503.01200626942557 150.07211732429954 C 505.7734300185795 150.07211732429954 508.01200626942557 152.31069357514556 508.01200626942557 155.07211732429954 Z" fill-opacity="1"/><path fill="none" stroke="rgb(0,0,0)" paint-order="fill stroke markers" d=" M 508.01200626942557 155.07211732429954 C 508.01200626942557 157.83354107345352 505.7734300185795 160.07211732429954 503.01200626942557 160.07211732429954 C 500.2505825202716 160.07211732429954 498.01200626942557 157.83354107345352 498.01200626942557 155.07211732429954 C 498.01200626942557 152.31069357514556 500.2505825202716 150.07211732429954 503.01200626942557 150.07211732429954 C 505.7734300185795 150.07211732429954 508.01200626942557 152.31069357514556 508.01200626942557 155.07211732429954 Z" stroke-opacity="1" stroke-linecap="round" stroke-linejoin="round" stroke-miterlimit="10"/><text fill="rgb(21,101,192)" stroke="none" font-family="geogebra-sans-serif, sans-serif" font-size="16px" font-style="normal" font-weight="normal" text-decoration="normal" x="507" y="145" text-anchor="start" dominant-baseline="alphabetic" fill-opacity="1">C</text><text fill="none" stroke="rgb(255,255,255)" font-family="geogebra-sans-serif, sans-serif" font-size="16px" font-style="normal" font-weight="normal" text-decoration="normal" x="507" y="145" text-anchor="start" dominant-baseline="alphabetic" stroke-opacity="1" stroke-linejoin="bevel" stroke-miterlimit="10" stroke-width="3">C</text><text fill="rgb(21,101,192)" stroke="none" font-family="geogebra-sans-serif, sans-serif" font-size="16px" font-style="normal" font-weight="normal" text-decoration="normal" x="507" y="145" text-anchor="start" dominant-baseline="alphabetic" fill-opacity="1">C</text><path fill="rgb(97,97,97)" stroke="none" paint-order="stroke fill markers" d=" M 445.8302390361869 468.88378710412064 C 445.8302390361869 471.0929261034438 444.0393780355101 472.88378710412064 441.8302390361869 472.88378710412064 C 439.62110003686377 472.88378710412064 437.8302390361869 471.0929261034438 437.8302390361869 468.88378710412064 C 437.8302390361869 466.6746481047975 439.62110003686377 464.88378710412064 441.8302390361869 464.88378710412064 C 444.0393780355101 464.88378710412064 445.8302390361869 466.6746481047975 445.8302390361869 468.88378710412064 Z" fill-opacity="1"/><path fill="none" stroke="rgb(0,0,0)" paint-order="fill stroke markers" d=" M 445.8302390361869 468.88378710412064 C 445.8302390361869 471.0929261034438 444.0393780355101 472.88378710412064 441.8302390361869 472.88378710412064 C 439.62110003686377 472.88378710412064 437.8302390361869 471.0929261034438 437.8302390361869 468.88378710412064 C 437.8302390361869 466.6746481047975 439.62110003686377 464.88378710412064 441.8302390361869 464.88378710412064 C 444.0393780355101 464.88378710412064 445.8302390361869 466.6746481047975 445.8302390361869 468.88378710412064 Z" stroke-opacity="1" stroke-linecap="round" stroke-linejoin="round" stroke-miterlimit="10"/><text fill="rgb(97,97,97)" stroke="none" font-family="geogebra-sans-serif, sans-serif" font-size="16px" font-style="normal" font-weight="normal" text-decoration="normal" x="446" y="461" text-anchor="start" dominant-baseline="alphabetic" fill-opacity="1">D</text><text fill="none" stroke="rgb(255,255,255)" font-family="geogebra-sans-serif, sans-serif" font-size="16px" font-style="normal" font-weight="normal" text-decoration="normal" x="446" y="461" text-anchor="start" dominant-baseline="alphabetic" stroke-opacity="1" stroke-linejoin="bevel" stroke-miterlimit="10" stroke-width="3">D</text><text fill="rgb(97,97,97)" stroke="none" font-family="geogebra-sans-serif, sans-serif" font-size="16px" font-style="normal" font-weight="normal" text-decoration="normal" x="446" y="461" text-anchor="start" dominant-baseline="alphabetic" fill-opacity="1">D</text><path fill="rgb(97,97,97)" stroke="none" paint-order="stroke fill markers" d=" M 319.75618531191355 343.77953379311066 C 319.75618531191355 345.9886727924338 317.9653243112367 347.77953379311066 315.75618531191355 347.77953379311066 C 313.5470463125904 347.77953379311066 311.75618531191355 345.9886727924338 311.75618531191355 343.77953379311066 C 311.75618531191355 341.5703947937875 313.5470463125904 339.77953379311066 315.75618531191355 339.77953379311066 C 317.9653243112367 339.77953379311066 319.75618531191355 341.5703947937875 319.75618531191355 343.77953379311066 Z" fill-opacity="1"/><path fill="none" stroke="rgb(0,0,0)" paint-order="fill stroke markers" d=" M 319.75618531191355 343.77953379311066 C 319.75618531191355 345.9886727924338 317.9653243112367 347.77953379311066 315.75618531191355 347.77953379311066 C 313.5470463125904 347.77953379311066 311.75618531191355 345.9886727924338 311.75618531191355 343.77953379311066 C 311.75618531191355 341.5703947937875 313.5470463125904 339.77953379311066 315.75618531191355 339.77953379311066 C 317.9653243112367 339.77953379311066 319.75618531191355 341.5703947937875 319.75618531191355 343.77953379311066 Z" stroke-opacity="1" stroke-linecap="round" stroke-linejoin="round" stroke-miterlimit="10"/><text fill="rgb(97,97,97)" stroke="none" font-family="geogebra-sans-serif, sans-serif" font-size="16px" font-style="normal" font-weight="normal" text-decoration="normal" x="320" y="336" text-anchor="start" dominant-baseline="alphabetic" fill-opacity="1">H</text><text fill="none" stroke="rgb(255,255,255)" font-family="geogebra-sans-serif, sans-serif" font-size="16px" font-style="normal" font-weight="normal" text-decoration="normal" x="320" y="336" text-anchor="start" dominant-baseline="alphabetic" stroke-opacity="1" stroke-linejoin="bevel" stroke-miterlimit="10" stroke-width="3">H</text><text fill="rgb(97,97,97)" stroke="none" font-family="geogebra-sans-serif, sans-serif" font-size="16px" font-style="normal" font-weight="normal" text-decoration="normal" x="320" y="336" text-anchor="start" dominant-baseline="alphabetic" fill-opacity="1">H</text><text fill="rgb(97,97,97)" stroke="none" font-family="geogebra-sans-serif, sans-serif" font-size="14px" font-style="normal" font-weight="normal" text-decoration="normal" x="332" y="343" text-anchor="start" dominant-baseline="alphabetic" fill-opacity="1">a</text><text fill="none" stroke="rgb(255,255,255)" font-family="geogebra-sans-serif, sans-serif" font-size="14px" font-style="normal" font-weight="normal" text-decoration="normal" x="332" y="343" text-anchor="start" dominant-baseline="alphabetic" stroke-opacity="1" stroke-linejoin="bevel" stroke-miterlimit="10" stroke-width="3">a</text><text fill="rgb(97,97,97)" stroke="none" font-family="geogebra-sans-serif, sans-serif" font-size="14px" font-style="normal" font-weight="normal" text-decoration="normal" x="332" y="343" text-anchor="start" dominant-baseline="alphabetic" fill-opacity="1">a</text><path fill="rgb(97,97,97)" stroke="none" paint-order="stroke fill markers" d=" M 609.666097307627 400.30133480444795 C 609.666097307627 402.5104738037711 607.8752363069501 404.30133480444795 605.666097307627 404.30133480444795 C 603.4569583083038 404.30133480444795 601.666097307627 402.5104738037711 601.666097307627 400.30133480444795 C 601.666097307627 398.0921958051248 603.4569583083038 396.30133480444795 605.666097307627 396.30133480444795 C 607.8752363069501 396.30133480444795 609.666097307627 398.0921958051248 609.666097307627 400.30133480444795 Z" fill-opacity="1"/><path fill="none" stroke="rgb(0,0,0)" paint-order="fill stroke markers" d=" M 609.666097307627 400.30133480444795 C 609.666097307627 402.5104738037711 607.8752363069501 404.30133480444795 605.666097307627 404.30133480444795 C 603.4569583083038 404.30133480444795 601.666097307627 402.5104738037711 601.666097307627 400.30133480444795 C 601.666097307627 398.0921958051248 603.4569583083038 396.30133480444795 605.666097307627 396.30133480444795 C 607.8752363069501 396.30133480444795 609.666097307627 398.0921958051248 609.666097307627 400.30133480444795 Z" stroke-opacity="1" stroke-linecap="round" stroke-linejoin="round" stroke-miterlimit="10"/><text fill="rgb(97,97,97)" stroke="none" font-family="geogebra-sans-serif, sans-serif" font-size="16px" font-style="normal" font-weight="normal" text-decoration="normal" x="610" y="392" text-anchor="start" dominant-baseline="alphabetic" fill-opacity="1">H</text><text fill="none" stroke="rgb(255,255,255)" font-family="geogebra-sans-serif, sans-serif" font-size="16px" font-style="normal" font-weight="normal" text-decoration="normal" x="610" y="392" text-anchor="start" dominant-baseline="alphabetic" stroke-opacity="1" stroke-linejoin="bevel" stroke-miterlimit="10" stroke-width="3">H</text><text fill="rgb(97,97,97)" stroke="none" font-family="geogebra-sans-serif, sans-serif" font-size="16px" font-style="normal" font-weight="normal" text-decoration="normal" x="610" y="392" text-anchor="start" dominant-baseline="alphabetic" fill-opacity="1">H</text><text fill="rgb(97,97,97)" stroke="none" font-family="geogebra-sans-serif, sans-serif" font-size="14px" font-style="normal" font-weight="normal" text-decoration="normal" x="622" y="399" text-anchor="start" dominant-baseline="alphabetic" fill-opacity="1">b</text><text fill="none" stroke="rgb(255,255,255)" font-family="geogebra-sans-serif, sans-serif" font-size="14px" font-style="normal" font-weight="normal" text-decoration="normal" x="622" y="399" text-anchor="start" dominant-baseline="alphabetic" stroke-opacity="1" stroke-linejoin="bevel" stroke-miterlimit="10" stroke-width="3">b</text><text fill="rgb(97,97,97)" stroke="none" font-family="geogebra-sans-serif, sans-serif" font-size="14px" font-style="normal" font-weight="normal" text-decoration="normal" x="622" y="399" text-anchor="start" dominant-baseline="alphabetic" fill-opacity="1">b</text><path fill="rgb(97,97,97)" stroke="none" paint-order="stroke fill markers" d=" M 508.7249460664538 468.540100180458 C 508.7249460664538 470.74923917978117 506.93408506577697 472.540100180458 504.7249460664538 472.540100180458 C 502.51580706713065 472.540100180458 500.7249460664538 470.74923917978117 500.7249460664538 468.540100180458 C 500.7249460664538 466.33096118113485 502.51580706713065 464.540100180458 504.7249460664538 464.540100180458 C 506.93408506577697 464.540100180458 508.7249460664538 466.33096118113485 508.7249460664538 468.540100180458 Z" fill-opacity="1"/><path fill="none" stroke="rgb(0,0,0)" paint-order="fill stroke markers" d=" M 508.7249460664538 468.540100180458 C 508.7249460664538 470.74923917978117 506.93408506577697 472.540100180458 504.7249460664538 472.540100180458 C 502.51580706713065 472.540100180458 500.7249460664538 470.74923917978117 500.7249460664538 468.540100180458 C 500.7249460664538 466.33096118113485 502.51580706713065 464.540100180458 504.7249460664538 464.540100180458 C 506.93408506577697 464.540100180458 508.7249460664538 466.33096118113485 508.7249460664538 468.540100180458 Z" stroke-opacity="1" stroke-linecap="round" stroke-linejoin="round" stroke-miterlimit="10"/><text fill="rgb(97,97,97)" stroke="none" font-family="geogebra-sans-serif, sans-serif" font-size="16px" font-style="normal" font-weight="normal" text-decoration="normal" x="509" y="461" text-anchor="start" dominant-baseline="alphabetic" fill-opacity="1">H</text><text fill="none" stroke="rgb(255,255,255)" font-family="geogebra-sans-serif, sans-serif" font-size="16px" font-style="normal" font-weight="normal" text-decoration="normal" x="509" y="461" text-anchor="start" dominant-baseline="alphabetic" stroke-opacity="1" stroke-linejoin="bevel" stroke-miterlimit="10" stroke-width="3">H</text><text fill="rgb(97,97,97)" stroke="none" font-family="geogebra-sans-serif, sans-serif" font-size="16px" font-style="normal" font-weight="normal" text-decoration="normal" x="509" y="461" text-anchor="start" dominant-baseline="alphabetic" fill-opacity="1">H</text><text fill="rgb(0,0,0)" stroke="none" font-family="geogebra-sans-serif, sans-serif" font-size="16px" font-style="normal" font-weight="normal" text-decoration="normal" x="304" y="504" text-anchor="start" dominant-baseline="alphabetic" fill-opacity="1">x</text><text fill="rgb(0,0,0)" stroke="none" font-family="geogebra-sans-serif, sans-serif" font-size="16px" font-style="normal" font-weight="normal" text-decoration="normal" x="539" y="509" text-anchor="start" dominant-baseline="alphabetic" fill-opacity="1">y</text><text fill="rgb(0,0,0)" stroke="none" font-family="geogebra-sans-serif, sans-serif" font-size="16px" font-style="normal" font-weight="normal" text-decoration="normal" x="314" y="293" text-anchor="start" dominant-baseline="alphabetic" fill-opacity="1">a</text><text fill="rgb(0,0,0)" stroke="none" font-family="geogebra-sans-serif, sans-serif" font-size="16px" font-style="normal" font-weight="normal" text-decoration="normal" x="571" y="267" text-anchor="start" dominant-baseline="alphabetic" fill-opacity="1">b</text></g></g></svg>